<svg xmlns="http://www.w3.org/2000/svg" xmlns:xlink="http://www.w3.org/1999/xlink" width="1080" zoomAndPan="magnify" viewBox="0 0 810 1439.999935" height="1920" preserveAspectRatio="xMidYMid meet" version="1.0"><defs><g/></defs><path stroke-linecap="butt" transform="matrix(0.75, 0, 0, 0.75, -18.942387, 691.606336)" fill="none" stroke-linejoin="miter" d="M 54.522146 16.149887 C 54.522146 15.373845 54.772146 14.738428 55.266938 14.243637 C 55.777355 13.73322 56.496105 13.472803 57.428396 13.472803 L 127.157569 13.472803 C 128.105486 13.472803 128.824236 13.73322 129.319028 14.243637 C 129.829444 14.738428 130.089861 15.373845 130.089861 16.149887 L 130.089861 30.014471 C 130.089861 31.498846 129.235694 32.23843 127.527361 32.23843 L 106.881526 32.23843 C 105.954442 32.23843 105.490901 32.629055 105.490901 33.405097 L 105.490901 97.436352 C 105.490901 98.290519 105.287776 98.936352 104.891942 99.373852 C 104.511734 99.790519 103.970067 99.998852 103.266942 99.998852 L 81.115899 99.998852 C 79.709648 99.998852 79.011732 99.222811 79.011732 97.665519 L 79.011732 33.889472 C 79.011732 32.785305 78.584648 32.23843 77.730482 32.23843 L 57.19923 32.23843 C 55.41798 32.23843 54.522146 31.498846 54.522146 30.014471 Z M 215.08466 96.269685 C 215.235702 96.571769 215.313827 96.998852 215.313827 97.550936 C 215.313827 98.254061 215.095077 98.842602 214.657577 99.316561 C 214.24091 99.769686 213.688827 99.998852 213.006535 99.998852 L 190.371116 99.998852 C 188.740908 99.998852 187.683616 99.186352 187.209658 97.550936 L 176.251323 67.457183 C 176.022157 66.832183 175.631532 66.363433 175.084657 66.061349 C 174.553407 65.759266 173.735698 65.608224 172.631531 65.608224 L 167.282573 65.608224 C 166.808614 65.608224 166.454448 65.759266 166.225281 66.061349 C 166.001323 66.363433 165.886739 66.639474 165.886739 66.889475 L 165.886739 96.613435 C 165.886739 97.863436 165.574239 98.748852 164.944031 99.259269 C 164.319031 99.754061 163.350281 99.998852 162.042989 99.998852 L 142.423196 99.998852 C 141.266945 99.998852 140.47007 99.769686 140.03257 99.316561 C 139.615904 98.842602 139.40757 98.103019 139.40757 97.09781 L 139.40757 16.149887 C 139.40757 14.368637 140.147154 13.472803 141.62632 13.472803 L 180.579449 13.472803 C 191.850283 13.472803 200.595076 15.629053 206.798201 19.936345 C 213.027368 24.248846 216.136744 30.33218 216.136744 38.186347 C 216.136744 43.561347 214.714868 48.342598 211.86591 52.535307 C 209.037785 56.733224 205.376326 59.686349 200.876326 61.394682 C 200.402367 61.639474 200.167992 62.030099 200.167992 62.561349 C 200.167992 62.785307 200.240909 63.139474 200.391951 63.613433 Z M 179.522157 48.21239 C 182.485699 48.21239 184.761741 47.46239 186.355491 45.962389 C 187.949241 44.441556 188.751325 42.394681 188.751325 39.811347 C 188.751325 36.946764 187.787783 34.712388 185.871116 33.118638 C 183.975282 31.524888 181.621116 30.728013 178.813824 30.728013 L 168.563823 30.728013 C 167.558614 30.728013 166.855489 30.910305 166.454448 31.26968 C 166.074239 31.61343 165.886739 32.20718 165.886739 33.061347 L 165.886739 45.759264 C 165.886739 46.613431 166.016948 47.243639 166.282573 47.639473 C 166.548198 48.019681 167.074239 48.21239 167.850281 48.21239 Z M 225.579453 16.149887 C 225.579453 14.368637 226.324244 13.472803 227.803411 13.472803 L 290.782583 13.472803 C 292.168 13.472803 292.860709 14.290512 292.860709 15.92072 L 292.746125 29.446763 C 292.746125 31.556138 291.740917 32.608222 289.7305 32.608222 L 254.735705 32.608222 C 252.954455 32.608222 252.058622 33.337388 252.058622 34.80093 L 252.058622 44.707181 C 252.058622 45.488431 252.25133 46.092598 252.631538 46.530098 C 253.027372 46.967598 253.542997 47.186348 254.167997 47.186348 L 275.152374 47.186348 C 276.782582 47.186348 277.600291 47.951973 277.600291 49.49364 L 277.600291 63.957183 C 277.600291 65.285308 276.897166 65.946766 275.490915 65.946766 L 253.912789 65.946766 C 253.381538 65.946766 252.933622 66.108224 252.574247 66.431141 C 252.230497 66.733225 252.058622 67.113433 252.058622 67.571766 L 252.058622 79.243642 C 252.058622 79.868642 252.15758 80.295726 252.34508 80.524892 C 252.53258 80.754059 252.90758 80.868642 253.454455 80.868642 L 291.350292 80.868642 C 293.058625 80.868642 293.912792 81.608226 293.912792 83.087393 L 293.912792 97.436352 C 293.912792 98.217602 293.678417 98.842602 293.204459 99.316561 C 292.746125 99.769686 292.053417 99.998852 291.121125 99.998852 L 228.740911 99.998852 C 227.563828 99.998852 226.740911 99.769686 226.266953 99.316561 C 225.808619 98.842602 225.579453 98.103019 225.579453 97.09781 Z M 328.199253 13.472803 C 329.605503 13.472803 330.30342 14.290512 330.30342 15.92072 L 330.30342 96.613435 C 330.30342 97.863436 329.99092 98.748852 329.36592 99.259269 C 328.74092 99.754061 327.77217 99.998852 326.45967 99.998852 L 306.98571 99.998852 C 305.808626 99.998852 304.98571 99.769686 304.511751 99.316561 C 304.053418 98.842602 303.824251 98.103019 303.824251 97.09781 L 303.824251 16.149887 C 303.824251 15.29572 304.01696 14.63947 304.397168 14.186345 C 304.793001 13.712387 305.345085 13.472803 306.04821 13.472803 Z M 417.303428 13.472803 C 418.464886 13.472803 419.043011 14.129053 419.043011 15.441553 L 419.043011 97.894686 C 419.043011 98.519686 418.787803 99.030102 418.272178 99.431144 C 417.777386 99.811352 417.141969 99.998852 416.365928 99.998852 L 400.391968 99.998852 C 399.688843 99.998852 399.121134 99.884269 398.683634 99.660311 C 398.266968 99.410311 397.782593 98.946769 397.230509 98.264477 L 365.173215 54.759265 C 364.850298 54.358223 364.574256 54.196765 364.34509 54.27489 C 364.121131 54.347807 364.006548 54.58739 364.006548 54.988432 L 364.006548 97.436352 C 364.079465 98.368644 363.902381 99.030102 363.464881 99.431144 C 363.048215 99.811352 362.287798 99.998852 361.188839 99.998852 L 345.329463 99.998852 C 343.391963 99.998852 342.423213 99.222811 342.423213 97.665519 L 342.423213 16.149887 C 342.423213 14.368637 343.27738 13.472803 344.985713 13.472803 L 364.006548 13.472803 C 365.011756 13.472803 365.761757 13.60822 366.256548 13.873845 C 366.766965 14.13947 367.334673 14.707178 367.964882 15.582178 L 395.949259 54.530098 C 396.423218 55.21239 396.850301 55.55614 397.230509 55.55614 C 397.631551 55.55614 397.829468 55.050932 397.829468 54.045723 L 397.829468 15.92072 C 397.829468 14.290512 398.683634 13.472803 400.391968 13.472803 Z M 430.11072 99.998852 C 429.48572 99.998852 428.970095 99.790519 428.574262 99.373852 C 428.194054 98.936352 428.001345 98.332186 428.001345 97.550936 C 428.001345 96.998852 428.126345 96.373852 428.371137 95.670727 L 456.589889 16.149887 C 456.970098 15.144678 457.397181 14.45197 457.87114 14.071762 C 458.345098 13.675928 459.084681 13.472803 460.08989 13.472803 L 483.069058 13.472803 C 483.996142 13.472803 484.834684 13.769678 485.574267 14.35822 C 486.31385 14.925928 486.871142 15.675928 487.25135 16.60822 L 515.240936 96.040519 C 515.391978 96.670727 515.470103 97.134269 515.470103 97.436352 C 515.470103 98.139477 515.319061 98.748852 515.01177 99.259269 C 514.709686 99.754061 514.246144 99.998852 513.615936 99.998852 L 490.756559 99.998852 C 489.428434 99.998852 488.574267 99.337394 488.194059 98.009269 L 483.636767 84.597809 C 483.4076 84.066559 483.18885 83.707184 482.980517 83.514476 C 482.793017 83.306143 482.433642 83.201976 481.902392 83.201976 L 457.157598 83.201976 C 456.230514 83.201976 455.647181 83.629059 455.423223 84.483226 L 450.636764 98.264477 C 450.162806 99.420727 449.235722 99.998852 447.850305 99.998852 Z M 476.063849 63.384266 C 476.918016 63.384266 477.3451 62.998849 477.3451 62.217599 C 477.3451 62.066557 477.266975 61.675932 477.115933 61.050932 L 470.110724 41.118639 C 469.959682 40.722806 469.725307 40.524889 469.402391 40.524889 C 469.100307 40.524889 468.871141 40.722806 468.720099 41.118639 L 461.600307 60.936349 C 461.449265 61.238432 461.37114 61.629057 461.37114 62.103016 C 461.37114 62.957183 461.83989 63.384266 462.766973 63.384266 Z M 527.350312 99.998852 C 526.423229 99.998852 525.683645 99.717602 525.131562 99.144686 C 524.600312 98.556144 524.334687 97.748852 524.334687 96.728019 L 524.334687 16.149887 C 524.334687 15.222803 524.522187 14.54572 524.902395 14.129053 C 525.303437 13.691553 525.928437 13.472803 526.782604 13.472803 L 559.438857 13.472803 C 560.444065 13.472803 561.157607 13.60822 561.574274 13.873845 C 562.011774 14.13947 562.391982 14.707178 562.714899 15.582178 L 574.845108 52.64989 C 575.069066 53.280098 575.334691 53.592598 575.641983 53.592598 C 575.886775 53.592598 576.126358 53.280098 576.350317 52.64989 L 587.199276 16.863429 C 587.808651 14.603012 588.850318 13.472803 590.334693 13.472803 L 624.043029 13.472803 C 625.449279 13.472803 626.147196 14.290512 626.147196 15.92072 L 626.147196 96.613435 C 626.147196 97.863436 625.855529 98.748852 625.266987 99.259269 C 624.678446 99.754061 623.730529 99.998852 622.418029 99.998852 L 602.68886 99.998852 C 601.53261 99.998852 600.735735 99.769686 600.298235 99.316561 C 599.881569 98.842602 599.673235 98.103019 599.673235 97.09781 L 599.673235 44.707181 C 599.673235 44.103014 599.516985 43.795723 599.214902 43.795723 C 598.819068 43.795723 598.50136 44.149889 598.277402 44.847806 L 581.475317 97.894686 C 580.928442 99.295727 579.99615 99.998852 578.688858 99.998852 L 566.444066 99.998852 C 565.037816 99.998852 564.100315 99.295727 563.626357 97.894686 L 546.855522 45.759264 C 546.610731 44.983223 546.334689 44.592598 546.032606 44.592598 C 545.631564 44.592598 545.433647 45.019681 545.433647 45.873848 L 545.433647 97.436352 C 545.433647 98.441561 545.282605 99.129061 544.975314 99.488436 C 544.67323 99.826977 543.970105 99.998852 542.871147 99.998852 Z M 638.26178 16.149887 C 638.26178 14.368637 639.001364 13.472803 640.48053 13.472803 L 703.459703 13.472803 C 704.850328 13.472803 705.543036 14.290512 705.543036 15.92072 L 705.428453 29.446763 C 705.428453 31.556138 704.423244 32.608222 702.407619 32.608222 L 667.418033 32.608222 C 665.631574 32.608222 664.740949 33.337388 664.740949 34.80093 L 664.740949 44.707181 C 664.740949 45.488431 664.928449 46.092598 665.308658 46.530098 C 665.709699 46.967598 666.220116 47.186348 666.845116 47.186348 L 687.829493 47.186348 C 689.46491 47.186348 690.27741 47.951973 690.27741 49.49364 L 690.27741 63.957183 C 690.27741 65.285308 689.579493 65.946766 688.173243 65.946766 L 666.589908 65.946766 C 666.058658 65.946766 665.615949 66.108224 665.251366 66.431141 C 664.912824 66.733225 664.740949 67.113433 664.740949 67.571766 L 664.740949 79.243642 C 664.740949 79.868642 664.834699 80.295726 665.027408 80.524892 C 665.214908 80.754059 665.584699 80.868642 666.136783 80.868642 L 704.032619 80.868642 C 705.740953 80.868642 706.595119 81.608226 706.595119 83.087393 L 706.595119 97.436352 C 706.595119 98.217602 706.355536 98.842602 705.881578 99.316561 C 705.428453 99.769686 704.735744 99.998852 703.803453 99.998852 L 641.423239 99.998852 C 640.246155 99.998852 639.41803 99.769686 638.944072 99.316561 C 638.490947 98.842602 638.26178 98.103019 638.26178 97.09781 Z M 791.386794 13.472803 C 792.543044 13.472803 793.126377 14.129053 793.126377 15.441553 L 793.126377 97.894686 C 793.126377 98.519686 792.86596 99.030102 792.355544 99.431144 C 791.860752 99.811352 791.225335 99.998852 790.449293 99.998852 L 774.475334 99.998852 C 773.772209 99.998852 773.2045 99.884269 772.767 99.660311 C 772.350334 99.410311 771.865958 98.946769 771.313875 98.264477 L 739.256581 54.759265 C 738.933664 54.358223 738.657622 54.196765 738.428456 54.27489 C 738.204497 54.347807 738.089914 54.58739 738.089914 54.988432 L 738.089914 97.436352 C 738.162831 98.368644 737.985747 99.030102 737.548247 99.431144 C 737.13158 99.811352 736.371164 99.998852 735.272205 99.998852 L 719.412829 99.998852 C 717.475329 99.998852 716.506579 99.222811 716.506579 97.665519 L 716.506579 16.149887 C 716.506579 14.368637 717.360745 13.472803 719.069079 13.472803 L 738.089914 13.472803 C 739.095122 13.472803 739.845122 13.60822 740.339914 13.873845 C 740.850331 14.13947 741.418039 14.707178 742.048248 15.582178 L 770.032625 54.530098 C 770.506583 55.21239 770.933667 55.55614 771.313875 55.55614 C 771.714917 55.55614 771.912833 55.050932 771.912833 54.045723 L 771.912833 15.92072 C 771.912833 14.290512 772.767 13.472803 774.475334 13.472803 Z M 802.454503 16.149887 C 802.454503 15.373845 802.704503 14.738428 803.199295 14.243637 C 803.709711 13.73322 804.428461 13.472803 805.360753 13.472803 L 875.089926 13.472803 C 876.037843 13.472803 876.756593 13.73322 877.251384 14.243637 C 877.761801 14.738428 878.022218 15.373845 878.022218 16.149887 L 878.022218 30.014471 C 878.022218 31.498846 877.168051 32.23843 875.459717 32.23843 L 854.813882 32.23843 C 853.886799 32.23843 853.423257 32.629055 853.423257 33.405097 L 853.423257 97.436352 C 853.423257 98.290519 853.220132 98.936352 852.824299 99.373852 C 852.44409 99.790519 851.902424 99.998852 851.199299 99.998852 L 829.048255 99.998852 C 827.642005 99.998852 826.944088 99.222811 826.944088 97.665519 L 826.944088 33.889472 C 826.944088 32.785305 826.517005 32.23843 825.662838 32.23843 L 805.131586 32.23843 C 803.350336 32.23843 802.454503 31.498846 802.454503 30.014471 Z M 926.886805 101.165519 C 918.40243 101.165519 910.990971 99.363436 904.652428 95.759269 C 898.308678 92.134268 893.433677 86.998851 890.01701 80.353017 C 886.600343 73.712392 884.89201 65.920724 884.89201 56.978015 C 884.89201 48.040515 886.615968 40.207181 890.074302 33.48843 C 893.548261 26.754054 898.444094 21.540512 904.761803 17.85822 C 911.105554 14.160303 918.480555 12.306136 926.886805 12.306136 C 935.199306 12.306136 942.496182 14.160303 948.78264 17.85822 C 955.084724 21.540512 959.959725 26.754054 963.418058 33.48843 C 966.892017 40.207181 968.626392 48.040515 968.626392 56.978015 C 968.626392 65.842599 966.907642 73.618642 963.47535 80.295726 C 960.058683 86.978018 955.199308 92.134268 948.897224 95.759269 C 942.610765 99.363436 935.277431 101.165519 926.886805 101.165519 Z M 926.886805 82.972809 C 930.303472 82.972809 933.017014 82.139476 935.027431 80.467601 C 937.058681 78.795726 938.543056 76.103017 939.47014 72.384267 C 940.402431 68.644683 940.865973 63.623849 940.865973 57.321765 C 940.865973 47.68114 939.777431 40.759264 937.589931 36.566555 C 935.428473 32.368638 931.860764 30.274888 926.886805 30.274888 C 921.819096 30.274888 918.173263 32.368638 915.954513 36.566555 C 913.751387 40.759264 912.652429 47.68114 912.652429 57.321765 C 912.652429 63.623849 913.115971 68.644683 914.048262 72.384267 C 914.975346 76.103017 916.464929 78.795726 918.517013 80.467601 C 920.584721 82.139476 923.376388 82.972809 926.886805 82.972809 Z M 1029.829523 36.681139 C 1027.970147 34.649888 1025.964939 33.092597 1023.819105 32.009263 C 1021.694105 30.92593 1018.610772 30.384263 1014.569105 30.384263 C 1010.527438 30.384263 1007.527437 30.972805 1005.569104 32.149888 C 1003.636812 33.311347 1002.668062 34.70718 1002.668062 36.337389 C 1002.668062 39.129055 1005.152437 41.103014 1010.126396 42.259264 L 1029.485773 47.300931 C 1036.569106 49.082181 1041.892024 52.217598 1045.459732 56.696765 C 1049.048274 61.155099 1050.839941 66.498849 1050.839941 72.722808 C 1050.839941 78.472809 1049.324316 83.488434 1046.287857 87.759268 C 1043.24619 92.030102 1038.912857 95.332185 1033.272231 97.665519 C 1027.636814 99.998852 1021.048272 101.165519 1013.511813 101.165519 C 1004.95452 101.165519 997.152436 99.754061 990.110769 96.925935 C 983.089935 94.076977 978.220143 90.358227 975.506601 85.764476 C 975.105559 84.988434 974.907643 84.405101 974.907643 84.024893 C 974.907643 83.248851 975.334726 82.545726 976.188893 81.920726 L 988.204519 73.634267 C 989.058686 73.103017 989.834727 72.837392 990.537852 72.837392 C 991.392019 72.837392 992.095144 73.181142 992.642019 73.863433 C 995.282645 77.300934 997.959728 79.717601 1000.67327 81.123851 C 1003.407645 82.509268 1007.022229 83.201976 1011.522229 83.201976 C 1015.886813 83.201976 1019.329522 82.603018 1021.855564 81.410309 C 1024.381605 80.191559 1025.642022 78.540517 1025.642022 76.451975 C 1025.642022 74.972809 1025.017022 73.691558 1023.761814 72.608225 C 1022.532647 71.509267 1020.70973 70.681142 1018.298272 70.134266 L 1000.558687 65.832183 C 993.574311 64.123849 988.022227 60.915516 983.902435 56.21239 C 979.782643 51.504057 977.725351 46.082181 977.725351 39.951972 C 977.725351 34.884263 979.194101 30.233221 982.13681 26.004054 C 985.100352 21.769679 989.293061 18.431137 994.725353 15.978012 C 1000.168062 13.530095 1006.470146 12.306136 1013.626396 12.306136 C 1020.631605 12.306136 1027.121189 13.457178 1033.100356 15.754053 C 1039.079523 18.030095 1043.40244 21.076971 1046.058691 24.889471 C 1046.589941 25.592596 1046.855566 26.259263 1046.855566 26.884263 C 1046.855566 27.415513 1046.589941 27.920721 1046.058691 28.39468 L 1033.329523 37.618639 C 1032.949314 37.920722 1032.522231 38.071764 1032.048273 38.071764 C 1031.517023 38.071764 1030.777439 37.608222 1029.829523 36.681139 Z M 1029.829523 36.681139 " stroke="#f48f56" stroke-width="4.373363" stroke-opacity="1" stroke-miterlimit="4"/><g fill="#f48f56" fill-opacity="1"><g transform="translate(83.422678, 684.160529)"><g><path d="M 84.5 -92.890625 C 81.769531 -95.847656 78.832031 -98.125 75.6875 -99.71875 C 72.550781 -101.320312 68.019531 -102.125 62.09375 -102.125 C 56.164062 -102.125 51.773438 -101.269531 48.921875 -99.5625 C 46.066406 -97.851562 44.640625 -95.800781 44.640625 -93.40625 C 44.640625 -89.289062 48.289062 -86.378906 55.59375 -84.671875 L 83.984375 -77.3125 C 94.367188 -74.695312 102.179688 -70.109375 107.421875 -63.546875 C 112.671875 -56.992188 115.296875 -49.15625 115.296875 -40.03125 C 115.296875 -31.59375 113.070312 -24.234375 108.625 -17.953125 C 104.175781 -11.679688 97.816406 -6.835938 89.546875 -3.421875 C 81.285156 -0.00390625 71.625 1.703125 60.5625 1.703125 C 48.007812 1.703125 36.570312 -0.375 26.25 -4.53125 C 15.9375 -8.695312 8.785156 -14.144531 4.796875 -20.875 C 4.222656 -22.007812 3.9375 -22.863281 3.9375 -23.4375 C 3.9375 -24.570312 4.5625 -25.597656 5.8125 -26.515625 L 23.4375 -38.65625 C 24.6875 -39.457031 25.828125 -39.859375 26.859375 -39.859375 C 28.109375 -39.859375 29.132812 -39.34375 29.9375 -38.3125 C 33.8125 -33.300781 37.742188 -29.769531 41.734375 -27.71875 C 45.722656 -25.664062 51.023438 -24.640625 57.640625 -24.640625 C 64.035156 -24.640625 69.082031 -25.519531 72.78125 -27.28125 C 76.488281 -29.050781 78.34375 -31.472656 78.34375 -34.546875 C 78.34375 -36.722656 77.429688 -38.609375 75.609375 -40.203125 C 73.785156 -41.796875 71.101562 -42.992188 67.5625 -43.796875 L 41.5625 -50.125 C 31.300781 -52.632812 23.148438 -57.335938 17.109375 -64.234375 C 11.066406 -71.128906 8.046875 -79.082031 8.046875 -88.09375 C 8.046875 -95.507812 10.210938 -102.320312 14.546875 -108.53125 C 18.878906 -114.75 25.035156 -119.65625 33.015625 -123.25 C 40.992188 -126.84375 50.234375 -128.640625 60.734375 -128.640625 C 70.992188 -128.640625 80.515625 -126.957031 89.296875 -123.59375 C 98.078125 -120.226562 104.40625 -115.753906 108.28125 -110.171875 C 109.082031 -109.140625 109.484375 -108.164062 109.484375 -107.25 C 109.484375 -106.457031 109.082031 -105.71875 108.28125 -105.03125 L 89.640625 -91.515625 C 89.066406 -91.054688 88.4375 -90.828125 87.75 -90.828125 C 86.957031 -90.828125 85.875 -91.515625 84.5 -92.890625 Z M 84.5 -92.890625 "/></g></g></g><g fill="#f48f56" fill-opacity="1"><g transform="translate(203.334743, 684.160529)"><g><path d="M 4.796875 -123 C 4.796875 -124.132812 5.164062 -125.070312 5.90625 -125.8125 C 6.644531 -126.550781 7.695312 -126.921875 9.0625 -126.921875 L 111.359375 -126.921875 C 112.734375 -126.921875 113.789062 -126.550781 114.53125 -125.8125 C 115.269531 -125.070312 115.640625 -124.132812 115.640625 -123 L 115.640625 -102.640625 C 115.640625 -100.472656 114.382812 -99.390625 111.875 -99.390625 L 81.59375 -99.390625 C 80.226562 -99.390625 79.546875 -98.816406 79.546875 -97.671875 L 79.546875 -3.765625 C 79.546875 -2.503906 79.257812 -1.5625 78.6875 -0.9375 C 78.113281 -0.3125 77.316406 0 76.296875 0 L 43.796875 0 C 41.742188 0 40.71875 -1.140625 40.71875 -3.421875 L 40.71875 -97 C 40.71875 -98.59375 40.085938 -99.390625 38.828125 -99.390625 L 8.71875 -99.390625 C 6.101562 -99.390625 4.796875 -100.472656 4.796875 -102.640625 Z M 4.796875 -123 "/></g></g></g><g fill="#f48f56" fill-opacity="1"><g transform="translate(323.759983, 684.160529)"><g><path d="M 119.921875 -5.46875 C 120.140625 -5.019531 120.25 -4.394531 120.25 -3.59375 C 120.25 -2.5625 119.9375 -1.703125 119.3125 -1.015625 C 118.6875 -0.335938 117.859375 0 116.828125 0 L 83.65625 0 C 81.257812 0 79.71875 -1.195312 79.03125 -3.59375 L 62.953125 -47.71875 C 62.609375 -48.632812 62.035156 -49.320312 61.234375 -49.78125 C 60.441406 -50.238281 59.242188 -50.46875 57.640625 -50.46875 L 49.78125 -50.46875 C 49.09375 -50.46875 48.578125 -50.238281 48.234375 -49.78125 C 47.890625 -49.320312 47.71875 -48.921875 47.71875 -48.578125 L 47.71875 -4.953125 C 47.71875 -3.128906 47.257812 -1.847656 46.34375 -1.109375 C 45.4375 -0.367188 44.015625 0 42.078125 0 L 13.34375 0 C 11.632812 0 10.460938 -0.335938 9.828125 -1.015625 C 9.203125 -1.703125 8.890625 -2.789062 8.890625 -4.28125 L 8.890625 -123 C 8.890625 -125.613281 9.972656 -126.921875 12.140625 -126.921875 L 69.28125 -126.921875 C 85.8125 -126.921875 98.640625 -123.753906 107.765625 -117.421875 C 116.890625 -111.097656 121.453125 -102.175781 121.453125 -90.65625 C 121.453125 -82.789062 119.367188 -75.78125 115.203125 -69.625 C 111.046875 -63.46875 105.660156 -59.132812 99.046875 -56.625 C 98.359375 -56.28125 98.015625 -55.707031 98.015625 -54.90625 C 98.015625 -54.5625 98.128906 -54.050781 98.359375 -53.375 Z M 67.734375 -75.953125 C 72.066406 -75.953125 75.398438 -77.0625 77.734375 -79.28125 C 80.078125 -81.507812 81.25 -84.503906 81.25 -88.265625 C 81.25 -92.484375 79.851562 -95.757812 77.0625 -98.09375 C 74.269531 -100.4375 70.820312 -101.609375 66.71875 -101.609375 L 51.65625 -101.609375 C 50.175781 -101.609375 49.148438 -101.351562 48.578125 -100.84375 C 48.003906 -100.332031 47.71875 -99.445312 47.71875 -98.1875 L 47.71875 -79.546875 C 47.71875 -78.285156 47.914062 -77.367188 48.3125 -76.796875 C 48.71875 -76.234375 49.492188 -75.953125 50.640625 -75.953125 Z M 67.734375 -75.953125 "/></g></g></g><g fill="#f48f56" fill-opacity="1"><g transform="translate(450.172277, 684.160529)"><g><path d="M 7.359375 0 C 6.441406 0 5.695312 -0.3125 5.125 -0.9375 C 4.5625 -1.5625 4.28125 -2.445312 4.28125 -3.59375 C 4.28125 -4.394531 4.453125 -5.304688 4.796875 -6.328125 L 46.1875 -123 C 46.757812 -124.476562 47.382812 -125.5 48.0625 -126.0625 C 48.75 -126.632812 49.832031 -126.921875 51.3125 -126.921875 L 85.015625 -126.921875 C 86.390625 -126.921875 87.617188 -126.492188 88.703125 -125.640625 C 89.785156 -124.785156 90.609375 -123.675781 91.171875 -122.3125 L 132.234375 -5.8125 C 132.460938 -4.90625 132.578125 -4.222656 132.578125 -3.765625 C 132.578125 -2.734375 132.347656 -1.847656 131.890625 -1.109375 C 131.429688 -0.367188 130.75 0 129.84375 0 L 96.3125 0 C 94.375 0 93.117188 -0.96875 92.546875 -2.90625 L 85.875 -22.578125 C 85.53125 -23.378906 85.210938 -23.921875 84.921875 -24.203125 C 84.640625 -24.492188 84.101562 -24.640625 83.3125 -24.640625 L 47.046875 -24.640625 C 45.671875 -24.640625 44.8125 -24.007812 44.46875 -22.75 L 37.46875 -2.5625 C 36.78125 -0.851562 35.410156 0 33.359375 0 Z M 74.75 -53.71875 C 76.007812 -53.71875 76.640625 -54.285156 76.640625 -55.421875 C 76.640625 -55.648438 76.523438 -56.222656 76.296875 -57.140625 L 66.03125 -86.390625 C 65.800781 -86.953125 65.457031 -87.234375 65 -87.234375 C 64.539062 -87.234375 64.203125 -86.953125 63.984375 -86.390625 L 53.546875 -57.3125 C 53.316406 -56.851562 53.203125 -56.28125 53.203125 -55.59375 C 53.203125 -54.34375 53.882812 -53.71875 55.25 -53.71875 Z M 74.75 -53.71875 "/></g></g></g><g fill="#f48f56" fill-opacity="1"><g transform="translate(586.848095, 684.160529)"><g><path d="M 12.828125 0 C 11.691406 0 10.75 -0.367188 10 -1.109375 C 9.257812 -1.847656 8.890625 -2.734375 8.890625 -3.765625 L 8.890625 -122.484375 C 8.890625 -123.734375 9.289062 -124.785156 10.09375 -125.640625 C 10.894531 -126.492188 11.921875 -126.921875 13.171875 -126.921875 L 64.140625 -126.921875 C 81.929688 -126.921875 95.414062 -124.097656 104.59375 -118.453125 C 113.78125 -112.816406 118.375 -104.46875 118.375 -93.40625 C 118.375 -87.351562 116.71875 -82.242188 113.40625 -78.078125 C 110.101562 -73.921875 104.289062 -69.90625 95.96875 -66.03125 C 95.738281 -65.914062 95.625 -65.710938 95.625 -65.421875 C 95.625 -65.140625 95.738281 -64.941406 95.96875 -64.828125 C 105.207031 -61.410156 111.765625 -57.363281 115.640625 -52.6875 C 119.515625 -48.007812 121.453125 -41.960938 121.453125 -34.546875 C 121.453125 -22.804688 116.972656 -14.113281 108.015625 -8.46875 C 99.066406 -2.820312 85.359375 0 66.890625 0 Z M 66.890625 -77.3125 C 70.878906 -77.3125 74.070312 -78.394531 76.46875 -80.5625 C 78.863281 -82.738281 80.0625 -85.535156 80.0625 -88.953125 C 80.0625 -92.597656 78.691406 -95.5625 75.953125 -97.84375 C 73.210938 -100.125 69.789062 -101.265625 65.6875 -101.265625 L 51.65625 -101.265625 C 50.175781 -101.265625 49.148438 -101.007812 48.578125 -100.5 C 48.003906 -99.988281 47.71875 -99.101562 47.71875 -97.84375 L 47.71875 -81.078125 C 47.71875 -79.710938 47.945312 -78.742188 48.40625 -78.171875 C 48.863281 -77.597656 49.609375 -77.3125 50.640625 -77.3125 Z M 66.03125 -25.65625 C 70.707031 -25.65625 74.382812 -26.96875 77.0625 -29.59375 C 79.738281 -32.21875 81.078125 -35.296875 81.078125 -38.828125 C 81.078125 -42.367188 79.765625 -45.28125 77.140625 -47.5625 C 74.523438 -49.84375 71.109375 -50.984375 66.890625 -50.984375 L 51.65625 -50.984375 C 50.175781 -50.984375 49.148438 -50.695312 48.578125 -50.125 C 48.003906 -49.550781 47.71875 -48.640625 47.71875 -47.390625 L 47.71875 -29.421875 C 47.71875 -28.054688 47.945312 -27.085938 48.40625 -26.515625 C 48.863281 -25.941406 49.609375 -25.65625 50.640625 -25.65625 Z M 66.03125 -25.65625 "/></g></g></g></svg>